<mxfile host="app.diagrams.net" modified="2021-07-12T08:10:20.307Z" agent="5.0 (Macintosh)" etag="gXUZGhwdfs0Geg0LVTnN" version="14.8.5" type="github">
  <diagram id="cAKXSewyob3qqtttkMx0" name="Page-1">
    <mxGraphModel dx="730" dy="612" grid="1" gridSize="10" guides="1" tooltips="1" connect="1" arrows="1" fold="1" page="1" pageScale="1" pageWidth="850" pageHeight="1100" math="0" shadow="0">
      <root>
        <mxCell id="0" />
        <mxCell id="1" parent="0" />
        <mxCell id="75B3qN5Wf4Ms-EECx8Ma-1" value="" style="shape=cylinder3;whiteSpace=wrap;html=1;boundedLbl=1;backgroundOutline=1;size=15;" parent="1" vertex="1">
          <mxGeometry x="360" y="280" width="60" height="80" as="geometry" />
        </mxCell>
        <mxCell id="mOZrZ1DxJn4fDi4njlIA-1" value="" style="ellipse;whiteSpace=wrap;html=1;" parent="1" vertex="1">
          <mxGeometry x="190" y="150" width="120" height="80" as="geometry" />
        </mxCell>
        <mxCell id="sEfQnmwHv1vjOyki-PLm-1" value="Actor" style="shape=umlActor;verticalLabelPosition=bottom;verticalAlign=top;html=1;outlineConnect=0;" parent="1" vertex="1">
          <mxGeometry x="120" y="300" width="30" height="60" as="geometry" />
        </mxCell>
        <mxCell id="bQX8BJR3oBpB8EFIhMYg-1" value="v2" style="shape=parallelogram;perimeter=parallelogramPerimeter;whiteSpace=wrap;html=1;fixedSize=1;" vertex="1" parent="1">
          <mxGeometry x="190" y="240" width="120" height="60" as="geometry" />
        </mxCell>
        <mxCell id="bQX8BJR3oBpB8EFIhMYg-2" value="&lt;h1&gt;Heading&lt;/h1&gt;&lt;p&gt;asdasdsad&lt;br&gt;&lt;/p&gt;" style="text;html=1;strokeColor=none;fillColor=none;spacing=5;spacingTop=-20;whiteSpace=wrap;overflow=hidden;rounded=0;" vertex="1" parent="1">
          <mxGeometry x="10" y="20" width="190" height="120" as="geometry" />
        </mxCell>
      </root>
    </mxGraphModel>
  </diagram>
</mxfile>
